<svg xmlns="http://www.w3.org/2000/svg" xmlns:xlink="http://www.w3.org/1999/xlink" width="1080" zoomAndPan="magnify" viewBox="0 0 810 809.999993" height="1080" preserveAspectRatio="xMidYMid meet" version="1.0"><defs><clipPath id="0d1091deae"><path d="M 369.769531 628.578125 L 467.175781 628.578125 L 467.175781 725.984375 L 369.769531 725.984375 Z M 369.769531 628.578125 " clip-rule="nonzero"/></clipPath></defs><path fill="#156d4e" d="M 167.566406 312.136719 C 167.21875 378.058594 191.378906 438.289062 231.414062 484.070312 L 250.023438 503.257812 L 308.082031 563.121094 L 321.003906 550.046875 C 351.804688 518.902344 349.679688 468.003906 316.566406 439.378906 C 281.382812 408.972656 259.105469 363.835938 259.128906 313.449219 C 259.175781 224.871094 329.296875 151.328125 417.105469 147.960938 C 510.800781 144.375 587.882812 219.886719 587.882812 313.542969 C 587.882812 362.265625 567.015625 406.074219 533.808594 436.382812 C 512.457031 455.871094 491.339844 475.628906 471.203125 496.378906 L 399.363281 570.417969 L 361.714844 609.203125 L 357.242188 613.828125 L 355.507812 615.601562 C 341.738281 631.371094 333.597656 652.269531 334.328125 675.09375 C 335.785156 720.582031 372.964844 757.339844 418.109375 757.972656 C 465.640625 758.636719 504.367188 720.007812 504.367188 672.253906 C 504.367188 651.804688 497.265625 633.027344 485.402344 618.304688 L 596.988281 503.246094 L 615.601562 484.058594 C 655.351562 438.597656 679.453125 378.90625 679.453125 313.535156 C 679.453125 171.035156 564.867188 55.515625 423.503906 55.515625 C 282.304688 55.527344 168.324219 169.777344 167.566406 312.136719 Z M 167.566406 312.136719 " fill-opacity="1" fill-rule="nonzero"/><g clip-path="url(#0d1091deae)"><path fill="#000000" d="M 467.179688 677.285156 C 467.179688 678.882812 467.101562 680.472656 466.945312 682.058594 C 466.789062 683.648438 466.558594 685.222656 466.246094 686.789062 C 465.933594 688.351562 465.546875 689.898438 465.085938 691.425781 C 464.621094 692.953125 464.085938 694.453125 463.472656 695.925781 C 462.863281 697.398438 462.183594 698.839844 461.429688 700.246094 C 460.679688 701.65625 459.859375 703.019531 458.972656 704.347656 C 458.085938 705.675781 457.136719 706.953125 456.125 708.1875 C 455.113281 709.421875 454.042969 710.601562 452.914062 711.730469 C 451.785156 712.855469 450.605469 713.925781 449.371094 714.9375 C 448.140625 715.949219 446.859375 716.898438 445.535156 717.785156 C 444.207031 718.671875 442.839844 719.492188 441.433594 720.242188 C 440.027344 720.996094 438.585938 721.675781 437.113281 722.289062 C 435.636719 722.898438 434.136719 723.433594 432.613281 723.898438 C 431.085938 724.359375 429.539062 724.75 427.976562 725.058594 C 426.410156 725.371094 424.832031 725.605469 423.246094 725.761719 C 421.660156 725.917969 420.066406 725.996094 418.472656 725.996094 C 416.875 725.996094 415.285156 725.917969 413.699219 725.761719 C 412.109375 725.605469 410.535156 725.371094 408.96875 725.058594 C 407.40625 724.75 405.859375 724.359375 404.332031 723.898438 C 402.804688 723.433594 401.304688 722.898438 399.832031 722.289062 C 398.359375 721.675781 396.917969 720.996094 395.511719 720.242188 C 394.105469 719.492188 392.738281 718.671875 391.410156 717.785156 C 390.082031 716.898438 388.804688 715.949219 387.570312 714.9375 C 386.335938 713.925781 385.15625 712.855469 384.027344 711.730469 C 382.902344 710.601562 381.832031 709.421875 380.820312 708.1875 C 379.808594 706.953125 378.859375 705.675781 377.972656 704.347656 C 377.085938 703.019531 376.265625 701.65625 375.515625 700.246094 C 374.761719 698.839844 374.082031 697.398438 373.46875 695.925781 C 372.859375 694.453125 372.324219 692.953125 371.859375 691.425781 C 371.398438 689.898438 371.007812 688.351562 370.699219 686.789062 C 370.386719 685.222656 370.152344 683.648438 369.996094 682.058594 C 369.839844 680.472656 369.761719 678.882812 369.761719 677.285156 C 369.761719 675.691406 369.839844 674.097656 369.996094 672.511719 C 370.152344 670.925781 370.386719 669.347656 370.699219 667.78125 C 371.007812 666.21875 371.398438 664.671875 371.859375 663.144531 C 372.324219 661.621094 372.859375 660.121094 373.46875 658.644531 C 374.082031 657.171875 374.761719 655.730469 375.515625 654.324219 C 376.265625 652.917969 377.085938 651.550781 377.972656 650.222656 C 378.859375 648.898438 379.808594 647.617188 380.820312 646.386719 C 381.832031 645.152344 382.902344 643.972656 384.027344 642.84375 C 385.15625 641.714844 386.335938 640.644531 387.570312 639.632812 C 388.804688 638.621094 390.082031 637.671875 391.410156 636.785156 C 392.738281 635.898438 394.105469 635.078125 395.511719 634.328125 C 396.917969 633.574219 398.359375 632.894531 399.832031 632.285156 C 401.304688 631.671875 402.804688 631.136719 404.332031 630.671875 C 405.859375 630.210938 407.40625 629.824219 408.96875 629.511719 C 410.535156 629.199219 412.109375 628.96875 413.699219 628.8125 C 415.285156 628.65625 416.875 628.578125 418.472656 628.578125 C 420.066406 628.578125 421.660156 628.65625 423.246094 628.8125 C 424.832031 628.96875 426.410156 629.199219 427.976562 629.511719 C 429.539062 629.824219 431.085938 630.210938 432.613281 630.671875 C 434.136719 631.136719 435.636719 631.671875 437.113281 632.285156 C 438.585938 632.894531 440.027344 633.574219 441.433594 634.328125 C 442.839844 635.078125 444.207031 635.898438 445.535156 636.785156 C 446.859375 637.671875 448.140625 638.621094 449.371094 639.632812 C 450.605469 640.644531 451.785156 641.714844 452.914062 642.84375 C 454.042969 643.972656 455.113281 645.152344 456.125 646.386719 C 457.136719 647.617188 458.085938 648.898438 458.972656 650.222656 C 459.859375 651.550781 460.679688 652.917969 461.429688 654.324219 C 462.183594 655.730469 462.863281 657.171875 463.472656 658.644531 C 464.085938 660.121094 464.621094 661.621094 465.085938 663.144531 C 465.546875 664.671875 465.933594 666.21875 466.246094 667.78125 C 466.558594 669.347656 466.789062 670.925781 466.945312 672.511719 C 467.101562 674.097656 467.179688 675.691406 467.179688 677.285156 Z M 467.179688 677.285156 " fill-opacity="1" fill-rule="nonzero"/></g></svg>