<svg xmlns="http://www.w3.org/2000/svg" xmlns:xlink="http://www.w3.org/1999/xlink" width="1080" zoomAndPan="magnify" viewBox="0 0 810 809.999993" height="1080" preserveAspectRatio="xMidYMid meet" version="1.0"><defs><clipPath id="8813456d8d"><path d="M 359.445312 635.332031 L 460.695312 635.332031 L 460.695312 736.582031 L 359.445312 736.582031 Z M 359.445312 635.332031 " clip-rule="nonzero"/></clipPath></defs><path fill="#000000" d="M 151.3125 318.546875 C 150.957031 385.542969 175.507812 446.75 216.195312 493.273438 L 235.105469 512.777344 L 294.109375 573.609375 L 307.242188 560.324219 C 338.542969 528.675781 336.382812 476.949219 302.730469 447.859375 C 266.976562 416.957031 244.335938 371.085938 244.363281 319.882812 C 244.410156 229.867188 315.667969 155.125 404.902344 151.703125 C 500.117188 148.0625 578.453125 224.800781 578.453125 319.976562 C 578.453125 369.488281 557.25 414.011719 523.5 444.8125 C 501.804688 464.621094 480.34375 484.695312 459.882812 505.785156 L 386.871094 581.027344 L 348.613281 620.441406 L 344.070312 625.140625 L 342.304688 626.945312 C 328.3125 642.96875 320.039062 664.207031 320.78125 687.402344 C 322.261719 733.628906 360.046875 770.984375 405.925781 771.625 C 454.226562 772.300781 493.582031 733.046875 493.582031 684.515625 C 493.582031 663.734375 486.367188 644.652344 474.308594 629.691406 L 587.710938 512.761719 L 606.621094 493.261719 C 647.019531 447.0625 671.511719 386.402344 671.511719 319.96875 C 671.511719 175.15625 555.066406 57.757812 411.40625 57.757812 C 267.914062 57.773438 152.078125 173.878906 151.3125 318.546875 Z M 151.3125 318.546875 " fill-opacity="1" fill-rule="nonzero"/><g clip-path="url(#8813456d8d)"><path fill="#f3f3f3" d="M 460.339844 685.785156 C 460.339844 687.4375 460.257812 689.085938 460.097656 690.730469 C 459.933594 692.371094 459.691406 694.003906 459.371094 695.625 C 459.046875 697.246094 458.644531 698.847656 458.167969 700.429688 C 457.6875 702.007812 457.132812 703.5625 456.5 705.089844 C 455.867188 706.617188 455.160156 708.109375 454.382812 709.566406 C 453.601562 711.023438 452.753906 712.4375 451.835938 713.8125 C 450.917969 715.1875 449.933594 716.511719 448.886719 717.789062 C 447.839844 719.066406 446.730469 720.289062 445.5625 721.457031 C 444.394531 722.625 443.171875 723.734375 441.894531 724.78125 C 440.617188 725.828125 439.292969 726.8125 437.917969 727.730469 C 436.542969 728.648438 435.128906 729.496094 433.671875 730.277344 C 432.214844 731.054688 430.722656 731.761719 429.195312 732.394531 C 427.667969 733.023438 426.113281 733.582031 424.535156 734.0625 C 422.953125 734.539062 421.351562 734.941406 419.730469 735.265625 C 418.109375 735.585938 416.476562 735.828125 414.835938 735.992188 C 413.191406 736.152344 411.542969 736.234375 409.890625 736.234375 C 408.238281 736.234375 406.589844 736.152344 404.945312 735.992188 C 403.300781 735.828125 401.667969 735.585938 400.046875 735.265625 C 398.425781 734.941406 396.824219 734.539062 395.246094 734.0625 C 393.664062 733.582031 392.109375 733.023438 390.582031 732.394531 C 389.054688 731.761719 387.566406 731.054688 386.105469 730.277344 C 384.648438 729.496094 383.234375 728.648438 381.859375 727.730469 C 380.488281 726.8125 379.160156 725.828125 377.882812 724.78125 C 376.605469 723.734375 375.382812 722.625 374.214844 721.457031 C 373.046875 720.289062 371.9375 719.066406 370.890625 717.789062 C 369.84375 716.511719 368.859375 715.1875 367.941406 713.8125 C 367.023438 712.4375 366.175781 711.023438 365.398438 709.566406 C 364.617188 708.109375 363.910156 706.617188 363.28125 705.089844 C 362.648438 703.5625 362.089844 702.007812 361.613281 700.429688 C 361.132812 698.847656 360.730469 697.246094 360.410156 695.625 C 360.085938 694.003906 359.84375 692.371094 359.683594 690.730469 C 359.519531 689.085938 359.441406 687.4375 359.441406 685.785156 C 359.441406 684.132812 359.519531 682.484375 359.683594 680.839844 C 359.84375 679.195312 360.085938 677.5625 360.410156 675.941406 C 360.730469 674.320312 361.132812 672.71875 361.613281 671.140625 C 362.089844 669.558594 362.648438 668.003906 363.28125 666.476562 C 363.910156 664.949219 364.617188 663.457031 365.398438 662 C 366.175781 660.542969 367.023438 659.128906 367.941406 657.753906 C 368.859375 656.382812 369.84375 655.054688 370.890625 653.777344 C 371.9375 652.5 373.046875 651.277344 374.214844 650.109375 C 375.382812 648.941406 376.605469 647.832031 377.882812 646.785156 C 379.160156 645.738281 380.488281 644.753906 381.859375 643.835938 C 383.234375 642.917969 384.648438 642.070312 386.105469 641.289062 C 387.566406 640.511719 389.054688 639.804688 390.582031 639.175781 C 392.109375 638.542969 393.664062 637.984375 395.246094 637.507812 C 396.824219 637.027344 398.425781 636.625 400.046875 636.304688 C 401.667969 635.980469 403.300781 635.738281 404.945312 635.578125 C 406.589844 635.414062 408.238281 635.332031 409.890625 635.332031 C 411.542969 635.332031 413.191406 635.414062 414.835938 635.578125 C 416.476562 635.738281 418.109375 635.980469 419.730469 636.304688 C 421.351562 636.625 422.953125 637.027344 424.535156 637.507812 C 426.113281 637.984375 427.667969 638.542969 429.195312 639.175781 C 430.722656 639.804688 432.214844 640.511719 433.671875 641.289062 C 435.128906 642.070312 436.542969 642.917969 437.917969 643.835938 C 439.292969 644.753906 440.617188 645.738281 441.894531 646.785156 C 443.171875 647.832031 444.394531 648.941406 445.5625 650.109375 C 446.730469 651.277344 447.839844 652.5 448.886719 653.777344 C 449.933594 655.054688 450.917969 656.382812 451.835938 657.753906 C 452.753906 659.128906 453.601562 660.542969 454.382812 662 C 455.160156 663.457031 455.867188 664.949219 456.5 666.476562 C 457.132812 668.003906 457.6875 669.558594 458.167969 671.140625 C 458.644531 672.71875 459.046875 674.320312 459.371094 675.941406 C 459.691406 677.5625 459.933594 679.195312 460.097656 680.839844 C 460.257812 682.484375 460.339844 684.132812 460.339844 685.785156 Z M 460.339844 685.785156 " fill-opacity="1" fill-rule="nonzero"/></g></svg>