<svg xmlns="http://www.w3.org/2000/svg" xmlns:xlink="http://www.w3.org/1999/xlink" width="1080" zoomAndPan="magnify" viewBox="0 0 810 809.999993" height="1080" preserveAspectRatio="xMidYMid meet" version="1.0"><defs><clipPath id="28ed3e9fe5"><path d="M 371.519531 629.070312 L 472.929688 629.070312 L 472.929688 730.480469 L 371.519531 730.480469 Z M 371.519531 629.070312 " clip-rule="nonzero"/></clipPath></defs><path fill="#fbb304" d="M 157.804688 308.316406 C 157.441406 376.953125 182.59375 439.65625 224.273438 487.320312 L 243.648438 507.300781 L 304.097656 569.621094 L 317.550781 556.011719 C 349.617188 523.585938 347.40625 470.597656 312.929688 440.792969 C 276.300781 409.136719 253.105469 362.144531 253.132812 309.6875 C 253.179688 217.464844 326.183594 140.894531 417.601562 137.390625 C 515.148438 133.660156 595.402344 212.277344 595.402344 309.78125 C 595.402344 360.507812 573.679688 406.117188 539.105469 437.671875 C 516.875 457.964844 494.890625 478.53125 473.925781 500.136719 L 399.128906 577.222656 L 359.933594 617.601562 L 355.28125 622.414062 L 353.472656 624.261719 C 339.136719 640.679688 330.660156 662.4375 331.421875 686.203125 C 332.941406 733.558594 371.648438 771.828125 418.648438 772.488281 C 468.136719 773.179688 508.453125 732.964844 508.453125 683.246094 C 508.453125 661.953125 501.058594 642.40625 488.707031 627.078125 L 604.886719 507.285156 L 624.261719 487.308594 C 665.648438 439.980469 690.738281 377.835938 690.738281 309.773438 C 690.738281 161.414062 571.441406 41.144531 424.265625 41.144531 C 277.257812 41.15625 158.589844 160.105469 157.804688 308.316406 Z M 157.804688 308.316406 " fill-opacity="1" fill-rule="nonzero"/><g clip-path="url(#28ed3e9fe5)"><path fill="#000000" d="M 472.9375 679.78125 C 472.9375 681.441406 472.855469 683.097656 472.691406 684.75 C 472.53125 686.40625 472.285156 688.046875 471.960938 689.675781 C 471.636719 691.304688 471.234375 692.914062 470.753906 694.503906 C 470.269531 696.089844 469.710938 697.652344 469.078125 699.1875 C 468.441406 700.722656 467.730469 702.222656 466.949219 703.6875 C 466.164062 705.152344 465.3125 706.574219 464.390625 707.957031 C 463.46875 709.335938 462.480469 710.667969 461.425781 711.953125 C 460.371094 713.238281 459.257812 714.464844 458.082031 715.640625 C 456.910156 716.816406 455.679688 717.929688 454.394531 718.980469 C 453.113281 720.035156 451.78125 721.023438 450.398438 721.945312 C 449.019531 722.871094 447.59375 723.722656 446.128906 724.503906 C 444.664062 725.289062 443.164062 725.996094 441.632812 726.632812 C 440.097656 727.269531 438.535156 727.828125 436.945312 728.308594 C 435.355469 728.792969 433.746094 729.195312 432.117188 729.519531 C 430.488281 729.84375 428.847656 730.085938 427.195312 730.25 C 425.542969 730.414062 423.886719 730.492188 422.222656 730.492188 C 420.5625 730.492188 418.90625 730.414062 417.253906 730.25 C 415.601562 730.085938 413.960938 729.84375 412.332031 729.519531 C 410.703125 729.195312 409.09375 728.792969 407.503906 728.308594 C 405.914062 727.828125 404.351562 727.269531 402.816406 726.632812 C 401.28125 725.996094 399.785156 725.289062 398.320312 724.503906 C 396.855469 723.722656 395.429688 722.871094 394.050781 721.945312 C 392.667969 721.023438 391.335938 720.035156 390.050781 718.980469 C 388.769531 717.929688 387.539062 716.816406 386.363281 715.640625 C 385.191406 714.464844 384.078125 713.238281 383.023438 711.953125 C 381.96875 710.667969 380.980469 709.335938 380.058594 707.957031 C 379.136719 706.574219 378.28125 705.152344 377.5 703.6875 C 376.714844 702.222656 376.007812 700.722656 375.371094 699.1875 C 374.734375 697.652344 374.175781 696.089844 373.695312 694.503906 C 373.214844 692.914062 372.808594 691.304688 372.484375 689.675781 C 372.160156 688.046875 371.917969 686.40625 371.753906 684.75 C 371.59375 683.097656 371.511719 681.441406 371.511719 679.78125 C 371.511719 678.121094 371.59375 676.464844 371.753906 674.808594 C 371.917969 673.15625 372.160156 671.515625 372.484375 669.886719 C 372.808594 668.257812 373.214844 666.648438 373.695312 665.058594 C 374.175781 663.46875 374.734375 661.910156 375.371094 660.375 C 376.007812 658.839844 376.714844 657.339844 377.5 655.875 C 378.28125 654.410156 379.136719 652.988281 380.058594 651.605469 C 380.980469 650.226562 381.96875 648.894531 383.023438 647.609375 C 384.078125 646.324219 385.191406 645.097656 386.363281 643.921875 C 387.539062 642.746094 388.769531 641.632812 390.050781 640.578125 C 391.335938 639.527344 392.667969 638.539062 394.050781 637.613281 C 395.429688 636.691406 396.855469 635.839844 398.320312 635.054688 C 399.785156 634.273438 401.28125 633.5625 402.816406 632.929688 C 404.351562 632.292969 405.914062 631.734375 407.503906 631.253906 C 409.09375 630.769531 410.703125 630.367188 412.332031 630.042969 C 413.960938 629.71875 415.601562 629.476562 417.253906 629.3125 C 418.90625 629.148438 420.5625 629.070312 422.222656 629.070312 C 423.886719 629.070312 425.542969 629.148438 427.195312 629.3125 C 428.847656 629.476562 430.488281 629.71875 432.117188 630.042969 C 433.746094 630.367188 435.355469 630.769531 436.945312 631.253906 C 438.535156 631.734375 440.097656 632.292969 441.632812 632.929688 C 443.164062 633.5625 444.664062 634.273438 446.128906 635.054688 C 447.59375 635.839844 449.019531 636.691406 450.398438 637.613281 C 451.78125 638.539062 453.113281 639.527344 454.394531 640.578125 C 455.679688 641.632812 456.910156 642.746094 458.082031 643.921875 C 459.257812 645.097656 460.371094 646.324219 461.425781 647.609375 C 462.480469 648.894531 463.46875 650.226562 464.390625 651.605469 C 465.3125 652.988281 466.164062 654.410156 466.949219 655.875 C 467.730469 657.339844 468.441406 658.839844 469.078125 660.375 C 469.710938 661.910156 470.269531 663.46875 470.753906 665.058594 C 471.234375 666.648438 471.636719 668.257812 471.960938 669.886719 C 472.285156 671.515625 472.53125 673.15625 472.691406 674.808594 C 472.855469 676.464844 472.9375 678.121094 472.9375 679.78125 Z M 472.9375 679.78125 " fill-opacity="1" fill-rule="nonzero"/></g></svg>