<svg xmlns="http://www.w3.org/2000/svg" xmlns:xlink="http://www.w3.org/1999/xlink" width="1080" zoomAndPan="magnify" viewBox="0 0 810 809.999993" height="1080" preserveAspectRatio="xMidYMid meet" version="1.0"><defs><clipPath id="9972acaa61"><path d="M 358.921875 601.480469 L 469.171875 601.480469 L 469.171875 711.730469 L 358.921875 711.730469 Z M 358.921875 601.480469 " clip-rule="nonzero"/></clipPath></defs><path fill="#f0151c" d="M 177.917969 321.53125 C 177.59375 382.792969 200.046875 438.765625 237.253906 481.3125 L 254.546875 499.144531 L 308.5 554.773438 L 320.511719 542.625 C 349.132812 513.679688 347.160156 466.382812 316.386719 439.78125 C 283.691406 411.523438 262.984375 369.574219 263.011719 322.75 C 263.054688 240.433594 328.214844 172.089844 409.816406 168.960938 C 496.890625 165.628906 568.523438 235.804688 568.523438 322.835938 C 568.523438 368.113281 549.132812 408.828125 518.273438 436.992188 C 498.429688 455.105469 478.804688 473.464844 460.09375 492.75 L 393.328125 561.554688 L 358.34375 597.597656 L 354.1875 601.894531 L 352.574219 603.546875 C 339.777344 618.199219 332.210938 637.621094 332.890625 658.832031 C 334.246094 701.101562 368.800781 735.265625 410.753906 735.851562 C 454.925781 736.46875 490.914062 700.570312 490.914062 656.191406 C 490.914062 637.1875 484.3125 619.738281 473.289062 606.058594 L 576.988281 499.128906 L 594.28125 481.296875 C 631.222656 439.050781 653.621094 383.582031 653.621094 322.832031 C 653.621094 190.402344 547.132812 83.050781 415.765625 83.050781 C 284.546875 83.0625 178.621094 189.234375 177.917969 321.53125 Z M 177.917969 321.53125 " fill-opacity="1" fill-rule="nonzero"/><g clip-path="url(#9972acaa61)"><path fill="#000000" d="M 469.179688 656.613281 C 469.179688 658.417969 469.089844 660.21875 468.914062 662.015625 C 468.734375 663.8125 468.472656 665.597656 468.117188 667.367188 C 467.765625 669.136719 467.328125 670.886719 466.804688 672.617188 C 466.28125 674.34375 465.671875 676.042969 464.980469 677.710938 C 464.289062 679.378906 463.519531 681.007812 462.667969 682.601562 C 461.816406 684.191406 460.890625 685.738281 459.886719 687.242188 C 458.882812 688.742188 457.808594 690.191406 456.664062 691.585938 C 455.519531 692.984375 454.308594 694.320312 453.03125 695.59375 C 451.753906 696.871094 450.417969 698.082031 449.023438 699.230469 C 447.625 700.375 446.175781 701.449219 444.675781 702.453125 C 443.175781 703.457031 441.628906 704.382812 440.035156 705.234375 C 438.441406 706.085938 436.8125 706.855469 435.144531 707.546875 C 433.476562 708.238281 431.777344 708.84375 430.050781 709.371094 C 428.324219 709.894531 426.574219 710.332031 424.800781 710.683594 C 423.03125 711.035156 421.246094 711.300781 419.449219 711.476562 C 417.652344 711.65625 415.851562 711.742188 414.046875 711.742188 C 412.242188 711.742188 410.441406 711.65625 408.640625 711.476562 C 406.84375 711.300781 405.0625 711.035156 403.289062 710.683594 C 401.519531 710.332031 399.769531 709.894531 398.042969 709.371094 C 396.316406 708.84375 394.617188 708.238281 392.949219 707.546875 C 391.28125 706.855469 389.648438 706.085938 388.058594 705.234375 C 386.464844 704.382812 384.917969 703.457031 383.417969 702.453125 C 381.914062 701.449219 380.46875 700.375 379.070312 699.230469 C 377.675781 698.082031 376.339844 696.871094 375.0625 695.59375 C 373.785156 694.320312 372.574219 692.984375 371.429688 691.585938 C 370.285156 690.191406 369.210938 688.742188 368.207031 687.242188 C 367.203125 685.738281 366.277344 684.191406 365.425781 682.601562 C 364.574219 681.007812 363.800781 679.378906 363.109375 677.710938 C 362.421875 676.042969 361.8125 674.34375 361.289062 672.617188 C 360.765625 670.886719 360.324219 669.136719 359.972656 667.367188 C 359.621094 665.597656 359.355469 663.8125 359.179688 662.015625 C 359.003906 660.21875 358.914062 658.417969 358.914062 656.613281 C 358.914062 654.804688 359.003906 653.003906 359.179688 651.207031 C 359.355469 649.410156 359.621094 647.625 359.972656 645.855469 C 360.324219 644.085938 360.765625 642.335938 361.289062 640.609375 C 361.8125 638.878906 362.421875 637.179688 363.109375 635.511719 C 363.800781 633.84375 364.574219 632.214844 365.425781 630.621094 C 366.277344 629.03125 367.203125 627.484375 368.207031 625.980469 C 369.210938 624.480469 370.285156 623.03125 371.429688 621.636719 C 372.574219 620.242188 373.785156 618.902344 375.0625 617.628906 C 376.339844 616.351562 377.675781 615.140625 379.070312 613.992188 C 380.46875 612.847656 381.914062 611.773438 383.417969 610.769531 C 384.917969 609.769531 386.464844 608.839844 388.058594 607.988281 C 389.648438 607.136719 391.28125 606.367188 392.949219 605.675781 C 394.617188 604.984375 396.316406 604.378906 398.042969 603.855469 C 399.769531 603.328125 401.519531 602.890625 403.289062 602.539062 C 405.0625 602.1875 406.84375 601.921875 408.640625 601.746094 C 410.441406 601.566406 412.242188 601.480469 414.046875 601.480469 C 415.851562 601.480469 417.652344 601.566406 419.449219 601.746094 C 421.246094 601.921875 423.03125 602.1875 424.800781 602.539062 C 426.574219 602.890625 428.324219 603.328125 430.050781 603.855469 C 431.777344 604.378906 433.476562 604.984375 435.144531 605.675781 C 436.8125 606.367188 438.441406 607.136719 440.035156 607.988281 C 441.628906 608.839844 443.175781 609.769531 444.675781 610.769531 C 446.175781 611.773438 447.625 612.847656 449.023438 613.992188 C 450.417969 615.140625 451.753906 616.351562 453.03125 617.628906 C 454.308594 618.902344 455.519531 620.242188 456.664062 621.636719 C 457.808594 623.03125 458.882812 624.480469 459.886719 625.980469 C 460.890625 627.484375 461.816406 629.03125 462.667969 630.621094 C 463.519531 632.214844 464.289062 633.84375 464.980469 635.511719 C 465.671875 637.179688 466.28125 638.878906 466.804688 640.609375 C 467.328125 642.335938 467.765625 644.085938 468.117188 645.855469 C 468.472656 647.625 468.734375 649.410156 468.914062 651.207031 C 469.089844 653.003906 469.179688 654.804688 469.179688 656.613281 Z M 469.179688 656.613281 " fill-opacity="1" fill-rule="nonzero"/></g></svg>