<svg xmlns="http://www.w3.org/2000/svg" xmlns:xlink="http://www.w3.org/1999/xlink" width="1080" zoomAndPan="magnify" viewBox="0 0 810 809.999993" height="1080" preserveAspectRatio="xMidYMid meet" version="1.0"><defs><clipPath id="ff7c40fb6a"><path d="M 345.902344 617.828125 L 449.402344 617.828125 L 449.402344 721.328125 L 345.902344 721.328125 Z M 345.902344 617.828125 " clip-rule="nonzero"/></clipPath></defs><path fill="#0584f4" d="M 157.621094 322.851562 C 157.285156 385.90625 180.394531 443.511719 218.683594 487.300781 L 236.484375 505.652344 L 292.015625 562.90625 L 304.375 550.402344 C 333.835938 520.617188 331.804688 471.933594 300.128906 444.554688 C 266.480469 415.472656 245.171875 372.300781 245.195312 324.109375 C 245.242188 239.386719 312.304688 169.046875 396.292969 165.824219 C 485.90625 162.398438 559.632812 234.621094 559.632812 324.199219 C 559.632812 370.796875 539.675781 412.699219 507.914062 441.6875 C 487.492188 460.328125 467.292969 479.222656 448.035156 499.074219 L 379.320312 569.886719 L 343.3125 606.984375 L 339.039062 611.40625 L 337.375 613.105469 C 324.207031 628.1875 316.417969 648.175781 317.117188 670.007812 C 318.515625 713.511719 354.074219 748.671875 397.253906 749.273438 C 442.714844 749.910156 479.753906 712.964844 479.753906 667.289062 C 479.753906 647.726562 472.960938 629.769531 461.617188 615.6875 L 568.34375 505.640625 L 586.144531 487.285156 C 624.164062 443.808594 647.214844 386.714844 647.214844 324.191406 C 647.214844 187.894531 537.617188 77.40625 402.410156 77.40625 C 267.359375 77.417969 158.34375 186.695312 157.621094 322.851562 Z M 157.621094 322.851562 " fill-opacity="1" fill-rule="nonzero"/><g clip-path="url(#ff7c40fb6a)"><path fill="#000000" d="M 449.410156 669.585938 C 449.410156 671.28125 449.328125 672.972656 449.160156 674.65625 C 448.996094 676.34375 448.746094 678.019531 448.414062 679.683594 C 448.085938 681.34375 447.671875 682.988281 447.179688 684.609375 C 446.6875 686.230469 446.117188 687.824219 445.46875 689.390625 C 444.820312 690.957031 444.097656 692.488281 443.296875 693.984375 C 442.5 695.476562 441.628906 696.929688 440.6875 698.339844 C 439.746094 699.75 438.738281 701.109375 437.660156 702.417969 C 436.585938 703.730469 435.449219 704.984375 434.25 706.183594 C 433.050781 707.378906 431.796875 708.519531 430.488281 709.59375 C 429.175781 710.667969 427.816406 711.675781 426.40625 712.617188 C 424.996094 713.558594 423.546875 714.429688 422.050781 715.230469 C 420.554688 716.027344 419.027344 716.753906 417.460938 717.402344 C 415.894531 718.050781 414.300781 718.621094 412.675781 719.113281 C 411.054688 719.605469 409.414062 720.015625 407.75 720.347656 C 406.085938 720.675781 404.414062 720.925781 402.726562 721.09375 C 401.039062 721.257812 399.347656 721.339844 397.652344 721.339844 C 395.957031 721.339844 394.265625 721.257812 392.578125 721.09375 C 390.894531 720.925781 389.21875 720.675781 387.554688 720.347656 C 385.894531 720.015625 384.25 719.605469 382.628906 719.113281 C 381.007812 718.621094 379.414062 718.050781 377.847656 717.402344 C 376.28125 716.753906 374.75 716.027344 373.253906 715.230469 C 371.761719 714.429688 370.308594 713.558594 368.898438 712.617188 C 367.488281 711.675781 366.128906 710.667969 364.820312 709.59375 C 363.507812 708.519531 362.253906 707.378906 361.054688 706.183594 C 359.855469 704.984375 358.71875 703.730469 357.644531 702.417969 C 356.570312 701.109375 355.5625 699.75 354.617188 698.339844 C 353.675781 696.929688 352.808594 695.476562 352.007812 693.984375 C 351.207031 692.488281 350.484375 690.957031 349.835938 689.390625 C 349.1875 687.824219 348.617188 686.230469 348.125 684.609375 C 347.632812 682.988281 347.222656 681.34375 346.890625 679.683594 C 346.558594 678.019531 346.3125 676.34375 346.144531 674.65625 C 345.980469 672.972656 345.898438 671.28125 345.898438 669.585938 C 345.898438 667.890625 345.980469 666.199219 346.144531 664.511719 C 346.3125 662.824219 346.558594 661.148438 346.890625 659.488281 C 347.222656 657.824219 347.632812 656.183594 348.125 654.5625 C 348.617188 652.9375 349.1875 651.34375 349.835938 649.777344 C 350.484375 648.210938 351.207031 646.683594 352.007812 645.1875 C 352.808594 643.691406 353.675781 642.238281 354.617188 640.832031 C 355.5625 639.421875 356.570312 638.0625 357.644531 636.75 C 358.71875 635.441406 359.855469 634.1875 361.054688 632.988281 C 362.253906 631.789062 363.507812 630.652344 364.820312 629.578125 C 366.128906 628.5 367.488281 627.492188 368.898438 626.550781 C 370.308594 625.609375 371.761719 624.738281 373.253906 623.941406 C 374.75 623.140625 376.28125 622.417969 377.847656 621.769531 C 379.414062 621.121094 381.007812 620.550781 382.628906 620.058594 C 384.25 619.566406 385.894531 619.152344 387.554688 618.824219 C 389.21875 618.492188 390.894531 618.242188 392.578125 618.078125 C 394.265625 617.910156 395.957031 617.828125 397.652344 617.828125 C 399.347656 617.828125 401.039062 617.910156 402.726562 618.078125 C 404.414062 618.242188 406.085938 618.492188 407.75 618.824219 C 409.414062 619.152344 411.054688 619.566406 412.675781 620.058594 C 414.300781 620.550781 415.894531 621.121094 417.460938 621.769531 C 419.027344 622.417969 420.554688 623.140625 422.050781 623.941406 C 423.546875 624.738281 424.996094 625.609375 426.40625 626.550781 C 427.816406 627.492188 429.175781 628.5 430.488281 629.578125 C 431.796875 630.652344 433.050781 631.789062 434.25 632.988281 C 435.449219 634.1875 436.585938 635.441406 437.660156 636.75 C 438.738281 638.0625 439.746094 639.421875 440.6875 640.832031 C 441.628906 642.238281 442.5 643.691406 443.296875 645.1875 C 444.097656 646.683594 444.820312 648.210938 445.46875 649.777344 C 446.117188 651.34375 446.6875 652.9375 447.179688 654.5625 C 447.671875 656.183594 448.085938 657.824219 448.414062 659.488281 C 448.746094 661.148438 448.996094 662.824219 449.160156 664.511719 C 449.328125 666.199219 449.410156 667.890625 449.410156 669.585938 Z M 449.410156 669.585938 " fill-opacity="1" fill-rule="nonzero"/></g></svg>